<svg width="288" height="49" viewBox="0 0 288 49" fill="none" xmlns="http://www.w3.org/2000/svg">
<path d="M184.273 20.8679C186.204 16.6237 188.052 12.6113 189.846 8.57597C190.168 7.85156 190.518 7.50919 191.38 7.56347C192.786 7.65115 194.199 7.58643 195.779 7.58643C195.605 7.98934 195.482 8.29831 195.344 8.59893C192.779 14.2042 190.24 19.8199 187.622 25.4001C187.24 26.2122 186.619 27.0598 185.875 27.5316C184.205 28.5879 182.234 27.7946 181.28 25.7863C179.561 22.1685 177.888 18.5277 176.192 14.8973C176.046 14.5841 175.889 14.271 175.665 13.8159C174.984 15.1812 174.353 16.4317 173.738 17.6905C172.419 20.3815 171.114 23.0766 169.795 25.7675C169.284 26.8113 168.572 27.6339 167.332 27.8551C165.45 28.1892 164.388 27.6109 163.529 25.6882C162.353 23.0494 161.215 20.394 160.055 17.7552C158.714 14.6934 157.372 11.6315 156.028 8.5697C155.905 8.28996 155.803 8.00187 155.642 7.5927C157.431 7.5927 159.112 7.56138 160.791 7.6261C161.043 7.6261 161.378 8.04362 161.509 8.34006C163.167 12.0978 164.793 15.8701 166.429 19.6383C166.58 19.9869 166.743 20.3314 166.976 20.8491C167.23 20.3668 167.423 20.014 167.595 19.6675C169.272 16.2229 170.936 12.7783 172.625 9.33168C173.089 8.38808 173.615 7.46744 174.768 7.17308C176.657 6.69293 177.912 7.27329 178.785 9.1271C180.481 12.7199 182.123 16.3315 183.79 19.9347C183.91 20.1748 184.042 20.4128 184.273 20.8679Z" fill="#E2EDFA"/>
<path d="M59.1529 19.4755C59.2504 20.3919 59.2122 21.2082 59.4581 21.9326C59.6777 22.4252 60.0861 22.8124 60.5943 23.0098C61.1963 23.2353 61.9064 23.2373 62.5698 23.2394C67.8309 23.2561 73.0942 23.2394 78.3553 23.2394H79.8179V27.3416C79.4512 27.3583 79.1078 27.3854 78.758 27.3854C73.3549 27.3854 67.9475 27.4001 62.5486 27.3854C61.4898 27.3924 60.4323 27.3086 59.3882 27.1349C55.7846 26.4919 54.1016 24.8198 53.79 21.1163C53.576 18.517 53.5987 15.904 53.8578 13.3086C54.2139 9.70121 55.9775 8.10209 59.6892 7.79313C62.006 7.59898 64.3525 7.59689 66.6693 7.59898C69.425 7.59898 72.1806 7.55096 74.9193 7.7973C78.3765 8.10836 79.8412 9.83064 79.8963 13.2251C79.9281 15.1729 79.8963 17.1206 79.8963 19.0704C79.8789 19.2115 79.8505 19.3511 79.8115 19.488L59.1529 19.4755ZM59.2758 15.9265H74.3745C74.3745 15.4046 74.3745 14.9265 74.3745 14.4485C74.3745 12.0206 74.1477 11.7909 71.6422 11.7826C68.7106 11.7826 65.7812 11.77 62.8496 11.7826C59.7464 11.8014 59.1423 12.4318 59.2207 15.4881C59.2228 15.5904 59.2461 15.6927 59.2758 15.9202V15.9265Z" fill="#E2EDFA"/>
<path d="M223.189 23.2478V27.3374C222.83 27.3583 222.525 27.3938 222.218 27.3938C216.707 27.3938 211.195 27.4814 205.684 27.3478C203.827 27.2755 201.992 26.9235 200.243 26.304C198.396 25.6777 197.388 23.9847 197.275 22.1622C197.089 18.9473 197.023 15.6906 197.315 12.4944C197.578 9.61977 199.516 8.11042 202.797 7.82233C205.182 7.61357 207.59 7.59895 209.987 7.59687C212.772 7.59687 215.57 7.56346 218.341 7.80563C221.688 8.09789 223.206 9.90577 223.229 13.198C223.244 15.2438 223.229 17.2918 223.229 19.4608H202.502C202.585 20.3731 202.532 21.1914 202.769 21.9179C202.876 22.1644 203.031 22.3874 203.226 22.5739C203.421 22.7603 203.652 22.9064 203.906 23.0035C204.542 23.2331 205.288 23.2394 205.987 23.2415C211.286 23.2582 216.586 23.2415 221.885 23.2415L223.189 23.2478ZM217.718 15.9014C217.718 15.3002 217.718 14.7866 217.718 14.271C217.718 12.0832 217.444 11.7846 215.235 11.7658C212.093 11.7533 208.95 11.7533 205.807 11.7658C205.281 11.7658 204.679 11.7324 204.249 11.96C203.681 12.2627 203.017 12.7241 202.805 13.271C202.507 14.0414 202.594 14.9516 202.494 15.8826L217.718 15.9014Z" fill="#E2EDFA"/>
<path d="M154.315 23.2478V27.3145C154.014 27.3437 153.747 27.3938 153.478 27.3938C147.865 27.3938 142.243 27.4189 136.637 27.3729C135.403 27.3518 134.175 27.2049 132.972 26.9345C130.4 26.3792 128.624 24.7592 128.421 22.204C128.145 18.9537 128.16 15.6859 128.463 12.4381C128.749 9.55091 130.689 8.08958 133.989 7.82654C136.658 7.61777 139.346 7.61777 142.025 7.60107C144.458 7.60107 146.9 7.54679 149.321 7.78061C152.888 8.12507 154.334 9.84318 154.355 13.3692C154.366 15.3482 154.355 17.3356 154.355 19.4358H133.868C133.173 21.9869 134.07 23.2332 136.541 23.2415C142.053 23.2603 147.564 23.2415 153.075 23.252L154.315 23.2478ZM148.833 15.9411C148.833 15.2418 148.833 14.6572 148.833 14.0623C148.833 12.1604 148.486 11.7888 146.563 11.7763C143.562 11.7554 140.56 11.7554 137.559 11.7763C136.821 11.7763 136.05 11.7763 135.359 11.9726C134.846 12.127 134.186 12.5425 134.036 12.985C133.731 13.8952 133.724 14.9036 133.586 15.9265L148.833 15.9411Z" fill="#E2EDFA"/>
<path d="M97.2016 21.6862L103.955 10.8056C105.519 8.28371 107.107 5.77648 108.635 3.23376C108.994 2.6367 109.394 2.44673 110.072 2.46343C111.902 2.50727 113.733 2.47804 115.722 2.47804C115.526 2.86634 115.418 3.13773 115.264 3.38407C110.636 10.7012 105.975 18.0016 101.392 25.3354C100.15 27.3228 98.5158 28.1579 96.1757 27.8677C94.5965 27.6714 93.6617 26.7195 92.8901 25.5024C91.0008 22.5296 89.117 19.5513 87.239 16.5674C84.5031 12.2251 81.7694 7.8815 79.0378 3.53647C78.8576 3.24837 78.686 2.95402 78.4019 2.49266C80.6615 2.49266 82.76 2.46134 84.8564 2.53023C85.1532 2.53023 85.5051 2.99786 85.7043 3.32353C89.3177 9.09371 92.9212 14.8695 96.5148 20.6508C96.7141 20.9681 96.9282 21.2729 97.2016 21.6862Z" fill="#E2EDFA"/>
<path d="M0.00878265 2.54692H5.5815C5.5815 2.94774 5.5815 3.28594 5.5815 3.62622C5.5815 8.39017 5.5815 13.1534 5.5815 17.916C5.5815 18.2291 5.5815 18.5423 5.5815 18.8554C5.62813 21.4399 6.70494 22.5735 9.32278 22.5985C14.1239 22.6465 18.9251 22.6215 23.7368 22.6277H25.0574V27.3416C24.7437 27.3604 24.4384 27.3959 24.1332 27.398C19.1561 27.398 14.1706 27.4105 9.19984 27.398C8.17594 27.3949 7.15363 27.3182 6.1411 27.1683C2.0967 26.5504 0.159282 24.5003 0.0702544 20.4107C-0.0420902 14.9202 0.0172618 9.42354 0.00454354 3.93101C0.00878296 3.48844 0.00878265 3.04795 0.00878265 2.54692Z" fill="#E2EDFA"/>
<path d="M39.2255 2.02083H44.8321V7.59061H51.1425V11.9454H44.919V27.3082H39.2636V12.0184H36.4868V7.59061H39.2255V2.02083Z" fill="#E2EDFA"/>
<path d="M240 7.59061V11.9934C238.83 11.9934 237.713 11.9934 236.594 11.9934C233.52 12.0164 232.598 12.9099 232.589 15.9119C232.579 19.3189 232.589 22.7259 232.589 26.1412C232.589 26.5191 232.589 26.8948 232.589 27.3374H227.066V25.7529C227.066 22.5192 227.066 19.2813 227.066 16.0517C227.054 15.2879 227.103 14.5243 227.212 13.7679C227.799 10.2189 229.471 8.53213 233.058 7.86618C233.855 7.718 234.663 7.63214 235.474 7.6094C236.954 7.56974 238.431 7.59061 240 7.59061Z" fill="#E2EDFA"/>
<path d="M33.6655 27.3374H28.1542V8.16263H33.6655V27.3374Z" fill="#E2EDFA"/>
<path d="M118.422 8.16679H123.912V27.3332H118.422V8.16679Z" fill="#E2EDFA"/>
<path d="M30.8844 1C33.5913 1.03131 33.7333 1.17118 33.727 3.85586C33.727 4.27339 33.727 4.69091 33.6888 5.10844C33.6231 5.86833 33.1843 6.36101 32.417 6.3965C31.4016 6.45286 30.3799 6.43616 29.3625 6.3965C28.5761 6.36309 28.1373 5.86624 28.0907 5.12096C28.0353 4.22144 28.031 3.31957 28.0779 2.41958C28.1182 1.63255 28.5634 1.1357 29.4049 1.07933C29.8988 1.03758 30.3821 1.02296 30.8844 1Z" fill="#E2EDFA"/>
<path d="M121.106 1.02086C123.861 1.03548 123.952 1.11898 123.965 3.82663C123.965 4.20657 123.954 4.58861 123.935 4.96855C123.895 5.81613 123.473 6.36309 122.587 6.39649C121.572 6.43198 120.552 6.42571 119.539 6.36517C118.744 6.31716 118.378 5.77855 118.346 5.03327C118.316 4.34227 118.327 3.64709 118.331 2.94565C118.331 1.43213 118.706 1.06679 120.26 1.0146C120.546 1.01251 120.828 1.02086 121.106 1.02086Z" fill="#E2EDFA"/>
<path d="M0 39.8679V34.034H1.14282C85.4691 34.034 169.795 34.0417 254.122 34.0572C254.5 34.0737 254.878 34.0067 255.227 33.8607C255.576 33.7147 255.889 33.4935 256.143 33.2129C258.96 30.3529 261.825 27.5415 264.672 24.7089C264.915 24.4662 265.146 24.2108 265.372 23.9723L241.614 0.00741966H244.681C246.867 0.00741966 249.055 -0.0200197 251.241 0.030637C251.716 0.0513177 252.168 0.235583 252.522 0.551979C260.239 8.17441 267.941 15.8123 275.626 23.4657C275.749 23.586 275.856 23.7211 276.129 24.0293C275.626 24.4767 275.114 24.8904 274.648 25.3527C267.347 32.5966 260.057 39.8482 252.78 47.1076C252.513 47.3994 252.185 47.6294 251.819 47.7814C251.454 47.9335 251.059 48.0039 250.664 47.9878C207.849 47.9638 165.034 47.9638 122.219 47.9878C121.078 47.9878 120.259 47.6796 119.448 46.8775C117.298 44.7457 115.04 42.7237 112.864 40.6172C112.61 40.3586 112.304 40.1566 111.966 40.0245C111.628 39.8925 111.265 39.8333 110.903 39.851C80.4668 39.8679 50.0303 39.8728 19.5931 39.8658H0V39.8679Z" fill="#63ABFF"/>
<path d="M257.393 0.013749C259.533 0.013749 261.501 -0.00735786 263.47 0.0348561C263.81 0.0852134 264.122 0.250654 264.354 0.50343C272.084 8.16244 279.808 15.8313 287.524 23.51C287.644 23.6282 287.735 23.7654 288 24.0651C287.124 24.8756 286.252 25.6334 285.433 26.446C278.507 33.3142 271.593 40.193 264.693 47.0823C264.045 47.7281 263.445 47.9943 262.481 47.9962C260.565 48 258.752 48 257.135 48L281.211 24.0884L257.393 0.013749Z" fill="#63ABFF"/>
<g filter="url(#filter0_d_1373_15442)">
<path d="M136.001 43.1574H138.185C138.369 43.9055 138.885 44.0893 139.547 44.0768C140.656 44.0552 141.766 44.0726 142.875 44.0693C143.079 44.0764 143.284 44.0658 143.487 44.0377C144.262 43.9014 144.63 43.2314 144.315 42.4491C144.223 42.2213 143.958 42.026 143.731 41.9254C143.503 41.8248 143.206 41.8231 142.941 41.8173C141.424 41.7841 139.906 41.8007 138.391 41.7259C137.054 41.6602 136.456 41.0234 136.308 39.582C136.255 39.0465 136.265 38.5059 136.34 37.9734C136.493 36.8803 137.268 36.187 138.514 36.0922C139.644 36.0091 140.781 35.9974 141.914 36.0091C142.866 36.0199 143.833 36.0199 144.766 36.1911C145.954 36.4089 146.617 37.5154 146.466 38.7931H144.327C144.276 37.8911 143.668 37.8787 143.036 37.8845C141.862 37.8936 140.689 37.8795 139.514 37.8903C138.704 37.8978 138.401 38.2652 138.459 39.1273C138.49 39.5787 138.672 39.8139 139.082 39.8879C139.285 39.9169 139.49 39.9291 139.694 39.9245C141.288 39.9444 142.883 39.9303 144.475 39.9877C145.816 40.0359 146.372 40.6228 146.527 42.085C146.586 42.6064 146.584 43.1337 146.52 43.6545C146.337 45.0511 145.642 45.7452 144.345 45.8898C143.939 45.9361 143.531 45.9583 143.124 45.9563C141.479 45.9439 139.832 45.978 138.192 45.8782C136.655 45.7859 135.975 44.8823 136.001 43.1574Z" fill="white"/>
<path d="M197.962 45.9613V36.0207C198.096 36.0141 198.218 36.0024 198.341 36.0024C200.572 36.0024 202.803 35.9941 205.035 36.0082C205.455 36.0138 205.873 36.0637 206.284 36.157C207.287 36.379 207.883 37.0756 208.121 38.1405C208.203 38.4611 208.249 38.7908 208.259 39.1231C208.259 40.5205 208.29 41.9221 208.199 43.3137C208.095 44.8981 207.288 45.7244 205.826 45.8907C205.305 45.9418 204.783 45.964 204.261 45.9572C202.31 45.9646 200.357 45.9572 198.408 45.9572L197.962 45.9613ZM200.167 43.9371C200.202 43.9524 200.239 43.9638 200.277 43.9712C201.462 43.9712 202.65 43.9812 203.833 43.9712C204.202 43.9736 204.571 43.9495 204.937 43.8989C205.728 43.7792 206.048 43.391 206.068 42.5139C206.089 41.6145 206.085 40.7142 206.081 39.8147C206.073 38.5212 205.65 38.0524 204.454 37.9917C204.327 37.9851 204.199 37.9851 204.071 37.9851C202.897 37.9851 201.724 37.9851 200.55 37.9851C200.427 37.9851 200.303 37.9967 200.167 38.0042V43.9371Z" fill="white"/>
<path d="M196.697 42.9387H190.343C190.17 43.8041 190.541 44.549 191.453 44.4966C192.218 44.4525 192.984 44.4883 193.749 44.4866C194.388 44.4866 194.554 44.3453 194.715 43.6678H196.684C196.774 44.0695 196.723 44.493 196.541 44.8562C196.359 45.2194 196.06 45.4965 195.701 45.6338C195.238 45.8242 194.749 45.932 194.254 45.953C193.057 45.9979 191.857 45.9871 190.657 45.9647C189.039 45.9339 188.11 44.8981 188.094 43.1383C188.089 42.543 188.072 41.9462 188.101 41.3518C188.163 40.0791 188.887 39.0799 190.111 38.9726C191.661 38.8432 193.217 38.8432 194.766 38.9726C195.863 39.0599 196.507 39.863 196.68 41.07C196.767 41.6669 196.697 42.2845 196.697 42.9387ZM190.338 41.6087H194.629C194.672 40.932 194.374 40.4449 193.778 40.4016C192.917 40.3401 192.052 40.3337 191.19 40.3825C190.578 40.4174 190.292 40.8888 190.337 41.6095L190.338 41.6087Z" fill="white"/>
<path d="M154.06 43.6645H156.032C156.172 44.5091 155.823 45.293 155.071 45.6188C154.61 45.8175 154.122 45.9299 153.626 45.9514C152.402 45.9979 151.177 45.9863 149.952 45.963C148.389 45.9339 147.446 44.8765 147.433 43.1757C147.429 42.6495 147.433 42.1224 147.433 41.5962C147.437 40.0932 148.307 38.9909 149.681 38.9194C151.08 38.8471 152.487 38.8563 153.891 38.9194C155.121 38.9785 155.958 39.9552 156.066 41.3235C156.106 41.8431 156.072 42.3685 156.072 42.9429H149.682C149.537 44.0103 149.893 44.4791 150.808 44.4808C151.56 44.4808 152.313 44.4808 153.066 44.4808C153.733 44.4825 153.903 44.342 154.06 43.6645ZM153.969 41.6145C154.013 41.0043 153.74 40.4665 153.239 40.4291C152.29 40.3583 151.337 40.3539 150.387 40.4158C149.862 40.4507 149.584 41.0392 149.707 41.6145H153.969Z" fill="white"/>
<path d="M217.85 42.9495H211.409C211.218 43.9155 211.626 44.4808 212.481 44.4858C213.246 44.4858 214.012 44.4858 214.777 44.4858C215.45 44.4858 215.595 44.3677 215.788 43.6678H217.755C217.919 44.5664 217.454 45.4193 216.594 45.7178C216.208 45.8579 215.806 45.9379 215.399 45.9555C214.151 45.986 212.902 45.9882 211.652 45.9622C210.371 45.9347 209.422 45.214 209.261 43.9754C209.134 42.9482 209.129 41.9074 209.247 40.8788C209.371 39.764 210.308 38.961 211.423 38.9186C212.81 38.8654 214.202 38.8637 215.589 38.9186C216.708 38.9643 217.482 39.7017 217.702 40.8946C217.822 41.5463 217.803 42.2313 217.85 42.9495ZM215.692 41.6087C215.71 40.9129 215.425 40.4449 214.85 40.405C213.975 40.3418 213.097 40.336 212.221 40.3875C211.626 40.4232 211.343 40.9154 211.412 41.6087H215.692Z" fill="white"/>
<path d="M218.785 43.7118H220.561C220.623 44.4384 221.102 44.4908 221.633 44.4816C222.437 44.4675 223.241 44.4816 224.044 44.4766C224.198 44.4822 224.351 44.4702 224.503 44.4409C224.768 44.3785 224.985 44.2455 224.983 43.8956C224.991 43.7482 224.95 43.6027 224.868 43.4847C224.787 43.3668 224.669 43.2841 224.537 43.2513C224.327 43.1935 224.11 43.1655 223.894 43.1682C222.822 43.1565 221.75 43.179 220.679 43.1391C220.32 43.1258 219.964 42.9728 219.612 42.8631C219.504 42.8194 219.407 42.7498 219.327 42.6594C218.668 41.9944 218.714 41.1431 218.845 40.2994C218.959 39.5587 219.452 39.1713 220.091 38.9992C220.35 38.9241 220.617 38.8849 220.884 38.8829C222.45 38.907 224.023 38.8829 225.579 39.01C226.558 39.0932 227.016 39.9245 226.877 41.07H224.975C224.937 40.5712 224.648 40.3725 224.253 40.3642C223.221 40.3426 222.186 40.3326 221.155 40.3493C220.849 40.3542 220.572 40.4981 220.577 40.9204C220.581 41.3427 220.845 41.5097 221.178 41.5214C221.93 41.5463 222.683 41.5355 223.435 41.5438C223.971 41.5496 224.507 41.5222 225.043 41.5787C226.952 41.7816 227.08 42.75 226.923 44.2206C226.822 45.1691 226.157 45.7784 225.123 45.8757C224.261 45.9588 223.391 45.9522 222.526 45.953C221.812 45.953 221.094 45.9588 220.388 45.8699C219.257 45.7385 218.643 44.8914 218.785 43.7118Z" fill="white"/>
<path d="M228.069 36.0191H230.229V41.3709C230.71 41.4424 231.086 41.4466 231.42 41.0018C231.919 40.3368 232.484 39.7324 233.041 39.1239C233.174 38.9871 233.345 38.9043 233.527 38.8895C234.211 38.8637 234.896 38.8787 235.63 38.8787L232.632 42.1133L236 45.9613C235.564 45.9613 235.219 45.9613 234.875 45.9613C234.379 45.9538 233.819 46.0927 233.408 45.8857C233.01 45.6853 232.763 45.1284 232.453 44.7219C232.101 44.2655 231.718 43.8307 231.412 43.3403C231.117 42.8673 230.746 42.8149 230.26 42.9321V45.9247H228.069V36.0191Z" fill="white"/>
<path d="M187.411 43.4184C187.553 44.8208 186.987 45.746 185.713 45.8449C184.125 45.9685 182.532 45.9813 180.943 45.8832C179.718 45.8092 178.972 44.9156 178.853 43.5955C178.785 42.8236 178.785 42.0464 178.853 41.2745C178.975 39.9029 179.695 39.0242 180.946 38.9527C182.548 38.8648 184.154 38.8884 185.753 39.0233C186.942 39.1214 187.453 39.9303 187.428 41.2919H185.38C185.375 40.572 184.869 40.528 184.367 40.5222C183.59 40.5139 182.812 40.5055 182.036 40.5538C181.403 40.5928 181.054 41.0301 181.031 41.7251C181.015 42.2089 181.016 42.6943 181.031 43.1782C181.049 43.8091 181.461 44.2879 182.046 44.3054C182.912 44.3303 183.78 44.3237 184.649 44.3004C185.13 44.2879 185.244 44.1242 185.388 43.4192L187.411 43.4184Z" fill="white"/>
<path d="M170.031 43.9463C170.284 43.3644 170.511 42.8473 170.736 42.3277C171.191 41.2762 171.655 40.2271 172.095 39.1688C172.189 38.9435 172.305 38.8671 172.528 38.8729C173.11 38.8887 173.692 38.8779 174.344 38.8779C174.241 39.1165 174.168 39.2877 174.093 39.4598C173.198 41.5247 172.305 43.5905 171.414 45.6571C171.323 45.869 171.226 45.9738 170.995 45.968C170.345 45.9505 169.693 45.9738 169.044 45.9522C168.975 45.9461 168.909 45.9233 168.849 45.8854C168.79 45.8476 168.739 45.7957 168.7 45.7335C167.705 43.4891 166.73 41.2371 165.751 38.9859C165.746 38.976 165.751 38.9593 165.766 38.8829C166.409 38.8829 167.064 38.8704 167.717 38.897C167.806 38.897 167.917 39.0824 167.972 39.2054C168.599 40.6519 169.222 42.1108 169.848 43.5614C169.895 43.6728 169.95 43.7775 170.031 43.9463Z" fill="white"/>
<path d="M159.213 45.9414H157.049V38.9061H159.213V39.7682L159.326 39.8513C159.403 39.7316 159.457 39.5678 159.563 39.4997C159.896 39.2852 160.239 38.9685 160.595 38.9419C161.458 38.8844 162.325 38.9008 163.186 38.9909C164.341 39.104 165.061 40.2254 164.995 41.7508C164.338 41.7508 163.678 41.7591 163.019 41.7392C162.939 41.7392 162.825 41.5954 162.789 41.4898C162.524 40.7308 162.258 40.5139 161.514 40.4989C161.246 40.4939 160.978 40.4906 160.711 40.4989C159.839 40.538 159.231 41.2038 159.22 42.1515C159.208 43.2455 159.22 44.3395 159.216 45.4335C159.213 45.5997 159.213 45.7618 159.213 45.9414Z" fill="white"/>
<path d="M177.517 45.948H175.388V38.882H177.516L177.517 45.948Z" fill="white"/>
<path d="M175.373 37.9676V36.0299H177.521V37.9676H175.373Z" fill="white"/>
</g>
<defs>
<filter id="filter0_d_1373_15442" x="133" y="33" width="106" height="16" filterUnits="userSpaceOnUse" color-interpolation-filters="sRGB">
<feFlood flood-opacity="0" result="BackgroundImageFix"/>
<feColorMatrix in="SourceAlpha" type="matrix" values="0 0 0 0 0 0 0 0 0 0 0 0 0 0 0 0 0 0 127 0" result="hardAlpha"/>
<feOffset/>
<feGaussianBlur stdDeviation="1.5"/>
<feComposite in2="hardAlpha" operator="out"/>
<feColorMatrix type="matrix" values="0 0 0 0 0.0817361 0 0 0 0 0.246957 0 0 0 0 0.445833 0 0 0 0.5 0"/>
<feBlend mode="normal" in2="BackgroundImageFix" result="effect1_dropShadow_1373_15442"/>
<feBlend mode="normal" in="SourceGraphic" in2="effect1_dropShadow_1373_15442" result="shape"/>
</filter>
</defs>
</svg>
